<svg width="54" height="60" viewBox="0 0 54 60" fill="none" xmlns="http://www.w3.org/2000/svg">
<path fill-rule="evenodd" clip-rule="evenodd" d="M9.95258 7.57477L11.1728 7.76962L12.4293 8.1242L37.4771 17.2302L38.5733 17.6775L39.6256 18.2453L40.626 18.9211L41.5665 19.6929L42.4388 20.5489L43.2344 21.4777L43.9446 22.4681L44.5605 23.5091L45.0727 24.5897L45.4715 25.699L45.7468 26.8261L45.888 27.9601L46.3341 52.6926L46.3342 52.6933L46.1839 53.8948L45.888 55.0062L45.4541 56.0177L44.89 56.9192L44.2034 57.6998L43.4026 58.3484L42.496 58.8536L41.4929 59.2036L40.4023 59.3865L39.2346 59.3904L38.0001 59.2034L10.3252 53.3021L8.97301 52.9896L7.5506 52.38L6.19088 51.4971L4.97379 50.579L3.86227 49.5308L2.8709 48.3703L2.01378 47.1156L1.30446 45.7853L0.755891 44.398L0.380284 42.9728L0.188965 41.528L0.192684 40.0824L2.39052 13.4516L2.56692 12.2924L2.91005 11.2464L3.40522 10.3196L4.0379 9.51717L4.79386 8.84417L5.65921 8.30516L6.62049 7.90452L7.6647 7.64646L8.77938 7.53516L9.95258 7.57477ZM46.3341 52.6926L45.888 27.9601L46.3313 51.4109L46.3341 52.6926Z" fill="url(#paint0_linear_1165_3595)" fill-opacity="0.5"/>
<path fill-rule="evenodd" clip-rule="evenodd" d="M7.90899 5.29505L7.73259 6.45431L5.64702 35.1799L5.6433 36.6255L5.83458 38.0702L6.21022 39.4956L6.7588 40.8828L7.46811 42.2131L8.32523 43.4678L9.31661 44.6283L10.4281 45.6765L11.6452 46.5946L12.9529 47.3653L14.3359 47.9722L15.7789 48.3995L45.3759 55.1031L46.6104 55.2901L47.7781 55.2863L48.8686 55.1034L49.8718 54.7534L48.873 55.3454L47.9699 55.8488L47.0157 56.4149L47.9695 55.8491L47.9699 55.8488L48.873 55.3454L49.8718 54.7534L50.7784 54.2482L48.8739 55.3449L48.8734 55.3451L48.873 55.3454L47.9699 55.8488L47.0157 56.4149L45.2035 57.4584L43.4352 58.4767L42.5416 58.9753L41.5572 59.3256L40.4915 59.516L39.3545 59.5352L38.1568 59.3715L9.59771 53.3363L8.21244 52.9469L6.88809 52.3845L5.63913 51.664L4.47987 50.801L3.42432 49.8118L2.48617 48.7131L1.67864 47.5221L1.01445 46.2561L0.505732 44.9327L0.163985 43.5698L0 42.185L0.0238198 40.7956L2.44573 13.0307L2.6332 11.9032L2.98057 10.8817L4.7439 8.37035L5.37074 7.57551L6.67436 5.93163L8.01019 4.24714L9.37867 2.52148L8.74728 3.32224L8.25212 4.24907L7.90899 5.29505Z" fill="url(#paint1_linear_1165_3595)"/>
<g filter="url(#filter0_b_1165_3595)">
<path fill-rule="evenodd" clip-rule="evenodd" d="M15.2949 0.577705L16.5152 0.772555L17.7716 1.12713L43.6438 10.0025L44.74 10.4497L45.7923 11.0175L46.7927 11.6933L47.7332 12.4651L48.6055 13.3211L49.4011 14.2499L50.1113 15.2404L50.7272 16.2813L51.2394 17.3619L51.6382 18.4712L51.9135 19.5984L52.0547 20.7323L53.7102 48.5926L53.7102 48.5933L53.56 49.7948L53.2641 50.9062L52.8302 51.9178L52.266 52.8192L51.5794 53.5998L50.7787 54.2484L49.8721 54.7537L48.869 55.1036L47.7784 55.2865L46.6107 55.2904L45.3761 55.1034L15.7798 48.3999L14.4276 48.0874L13.0052 47.4778L11.6455 46.5948L10.4284 45.6768L9.31686 44.6286L8.32549 43.468L7.46837 42.2134L6.75905 40.883L6.21048 39.4958L5.83487 38.0706L5.64355 36.6257L5.64727 35.1801L7.73284 6.45457L7.90924 5.2953L8.25237 4.24933L8.74753 3.32249L9.38022 2.5201L10.1362 1.8471L11.0015 1.30809L11.9628 0.90745L13.007 0.649393L14.1217 0.538086L15.2949 0.577705ZM53.7102 48.5926L52.0547 20.7323L53.7073 47.311L53.7102 48.5926Z" fill="url(#paint2_linear_1165_3595)" fill-opacity="0.3"/>
<path d="M53.5719 48.5888L53.4244 49.7684L53.1335 50.8611L52.7077 51.8537L52.1551 52.7366L51.4836 53.5L50.7012 54.1338L49.8154 54.6274L48.8347 54.9696L47.7667 55.1487L46.6208 55.1525L45.4017 54.9679L15.8108 48.2656L15.8102 48.2655L14.4706 47.9558L13.0703 47.3557L11.7246 46.4819L10.5174 45.5713L9.41684 44.5334L8.43512 43.3842L7.58645 42.1418L6.88436 40.8251L6.34168 39.4528L5.97038 38.0439L5.78142 36.6168L5.7851 35.1853L7.86992 6.46996L8.04379 5.32737L8.3796 4.3037L8.86335 3.39823L9.48094 2.61498L10.219 1.95787L11.0649 1.43101L12.0061 1.03874L13.0305 0.785571L14.1262 0.676157L15.2817 0.715175L16.4855 0.9074L17.7305 1.25875L43.5954 10.1316L44.6811 10.5745L45.7208 11.1355L46.7102 11.8039L47.641 12.5678L48.5046 13.4153L49.2925 14.3351L49.9957 15.3158L50.6053 16.3461L51.1119 17.4149L51.506 18.511L51.7777 19.6233L51.9174 20.745L53.5719 48.5888Z" stroke="url(#paint3_linear_1165_3595)" stroke-width="0.275679"/>
</g>
<g filter="url(#filter1_d_1165_3595)">
<path fill-rule="evenodd" clip-rule="evenodd" d="M18.0408 23.3533L19.2035 22.1084L17.8253 23.5844L18.0408 23.3533ZM46.0936 24.3733L30.4453 35.9669L30.4439 35.9679L30.1685 36.1383L29.8709 36.2601L29.5555 36.3343L29.2267 36.3615L28.889 36.3428L28.5468 36.279L28.2046 36.1711L27.8671 36.0201L27.5387 35.827L27.051 36.4556L26.5633 37.0841L26.8972 37.232L27.2359 37.3373L27.5748 37.3989L27.9096 37.4159L28.2356 37.3874L28.5487 37.3126L28.8443 37.1907L29.1183 37.0208L44.717 25.4561L44.7178 25.4555L46.0936 24.3733ZM18.9871 22.3405L17.8253 23.5844L17.6531 23.8459L17.5244 24.1337L17.4399 24.4432L17.3999 24.7703L17.405 25.1103L17.4554 25.4587L17.5517 25.811L17.694 26.1625L17.8826 26.5086L18.1177 26.8446L25.3673 36.0875L25.6362 36.395L25.9283 36.6645L26.2388 36.8945L26.5633 37.0841L27.051 36.4556L27.5387 35.827L27.2243 35.5931L26.9283 35.3195L26.6555 35.0075L19.2966 25.6342L19.0579 25.2936L18.866 24.943L18.7208 24.5873L18.6221 24.231L18.5696 23.8789L18.563 23.5355L18.6018 23.2055L18.6858 22.8934L18.8144 22.6036L18.9871 22.3405ZM18.9871 22.3405L19.2035 22.1084L17.8253 23.5844L18.9871 22.3405Z" fill="url(#paint4_linear_1165_3595)"/>
<path fill-rule="evenodd" clip-rule="evenodd" d="M45.9657 21.1335L46.1736 21.4312L46.3464 21.7362L46.4838 22.0449L46.5857 22.3536L46.652 22.6586L46.6823 22.9563L46.6765 23.2428L46.6342 23.5144L46.5551 23.7672L46.4388 23.9973L46.285 24.2007L46.0934 24.3735L30.4448 35.9674L30.4437 35.9682L30.1683 36.1385L29.8707 36.2603L29.5553 36.3345L29.2265 36.3618L28.8888 36.3431L28.5466 36.2792L28.2044 36.1713L27.8668 36.0203L27.5385 35.8273L27.2241 35.5933L28.671 29.7882L42.789 20.0771L43.0159 19.951L43.2621 19.8685L43.5238 19.8281L43.7972 19.8285L44.0787 19.8681L44.3644 19.9456L44.6508 20.0596L44.9341 20.2089L45.2109 20.3921L45.4775 20.608L45.7302 20.8555L45.9657 21.1335ZM18.6017 23.2056L18.6856 22.8937L18.8141 22.604L19.7557 21.7591L21.0833 21.6233L21.4316 21.7005L21.7776 21.8192L22.1168 21.9782L22.4449 22.1759L22.7577 22.4114L23.0507 22.6833L23.3197 22.9905L28.671 29.7882L27.2241 35.5933L26.9281 35.3197L26.6553 35.0077L19.2964 25.6344L19.0576 25.2938L18.8657 24.9433L18.7205 24.5875L18.6218 24.2312L18.5694 23.8791L18.5627 23.5358L18.6017 23.2056ZM21.0833 21.6233L20.737 21.5891L20.3974 21.5993L20.0687 21.6555L19.7557 21.7591L21.0833 21.6233ZM19.7557 21.7591L19.4629 21.9118L19.2034 22.1086L18.9869 22.3407L18.8141 22.604L19.7557 21.7591Z" fill="url(#paint5_linear_1165_3595)"/>
</g>
<defs>
<filter id="filter0_b_1165_3595" x="2.05973" y="-3.04574" width="55.2343" height="61.9196" filterUnits="userSpaceOnUse" color-interpolation-filters="sRGB">
<feFlood flood-opacity="0" result="BackgroundImageFix"/>
<feGaussianBlur in="BackgroundImageFix" stdDeviation="1.79191"/>
<feComposite in2="SourceAlpha" operator="in" result="effect1_backgroundBlur_1165_3595"/>
<feBlend mode="normal" in="SourceGraphic" in2="effect1_backgroundBlur_1165_3595" result="shape"/>
</filter>
<filter id="filter1_d_1165_3595" x="12.7946" y="18.5489" width="36.4463" height="24.7517" filterUnits="userSpaceOnUse" color-interpolation-filters="sRGB">
<feFlood flood-opacity="0" result="BackgroundImageFix"/>
<feColorMatrix in="SourceAlpha" type="matrix" values="0 0 0 0 0 0 0 0 0 0 0 0 0 0 0 0 0 0 127 0" result="hardAlpha"/>
<feOffset dx="-1.0234" dy="2.30265"/>
<feGaussianBlur stdDeviation="1.79095"/>
<feComposite in2="hardAlpha" operator="out"/>
<feColorMatrix type="matrix" values="0 0 0 0 0.103333 0 0 0 0 0.4104 0 0 0 0 0.43 0 0 0 0.25 0"/>
<feBlend mode="normal" in2="BackgroundImageFix" result="effect1_dropShadow_1165_3595"/>
<feBlend mode="normal" in="SourceGraphic" in2="effect1_dropShadow_1165_3595" result="shape"/>
</filter>
<linearGradient id="paint0_linear_1165_3595" x1="1.52739" y1="62.6461" x2="43.7228" y2="11.367" gradientUnits="userSpaceOnUse">
<stop offset="0.320833" stop-color="#C0EEF1"/>
<stop offset="0.58125" stop-color="#8FC3D0"/>
<stop offset="0.89375" stop-color="#2A9FAF" stop-opacity="0.79"/>
</linearGradient>
<linearGradient id="paint1_linear_1165_3595" x1="5.48812" y1="12.2001" x2="55.5978" y2="53.7184" gradientUnits="userSpaceOnUse">
<stop stop-color="#52E5E7"/>
<stop offset="1" stop-color="#130CB7"/>
</linearGradient>
<linearGradient id="paint2_linear_1165_3595" x1="7.17109" y1="57.3512" x2="49.3666" y2="6.07206" gradientUnits="userSpaceOnUse">
<stop offset="0.320833" stop-color="#A2F4FF"/>
<stop offset="0.685417" stop-color="#68D3E9" stop-opacity="0.9405"/>
<stop offset="0.89375" stop-color="#009BB0" stop-opacity="0.79"/>
</linearGradient>
<linearGradient id="paint3_linear_1165_3595" x1="5.55701" y1="50.0144" x2="52.2505" y2="10.842" gradientUnits="userSpaceOnUse">
<stop offset="0.180663" stop-color="white" stop-opacity="0.35"/>
<stop offset="0.533255" stop-color="white" stop-opacity="0"/>
</linearGradient>
<linearGradient id="paint4_linear_1165_3595" x1="16.0616" y1="10.8422" x2="16.398" y2="40.9051" gradientUnits="userSpaceOnUse">
<stop offset="0.301696" stop-color="#C5E7EE"/>
<stop offset="0.993284" stop-color="#7FB8C0" stop-opacity="0.63"/>
</linearGradient>
<linearGradient id="paint5_linear_1165_3595" x1="30.3592" y1="41.4353" x2="45.5039" y2="14.4749" gradientUnits="userSpaceOnUse">
<stop stop-color="white"/>
<stop offset="0.644664" stop-color="white" stop-opacity="0.57"/>
</linearGradient>
</defs>
</svg>
